<?xml version="1.0" standalone="no"?>
<!DOCTYPE svg PUBLIC "-//W3C//DTD SVG 20010904//EN"
 "http://www.w3.org/TR/2001/REC-SVG-20010904/DTD/svg10.dtd">
<svg version="1.0" xmlns="http://www.w3.org/2000/svg"
 width="636.000000pt" height="511.000000pt" viewBox="0 0 636.000000 511.000000"
 preserveAspectRatio="xMidYMid meet">

<g transform="translate(0.000000,511.000000) scale(0.100000,-0.100000)"
fill="#000000" stroke="none">
<path d="M1587 5103 c876 -2 2310 -2 3185 0 876 1 160 2 -1592 2 -1752 0
-2468 -1 -1593 -2z"/>
<path d="M3105 4370 c-202 -23 -400 -69 -557 -129 -107 -42 -156 -68 -168 -90
-5 -11 -10 -63 -10 -115 0 -84 -2 -97 -19 -106 -59 -31 -62 -56 -25 -179 29
-99 51 -124 103 -119 l35 3 32 -115 c18 -63 33 -122 33 -131 1 -13 -12 -17
-57 -21 -33 -4 -80 -17 -109 -31 -64 -33 -138 -115 -160 -179 -14 -38 -25 -53
-49 -63 -36 -15 -74 -60 -74 -87 0 -10 -13 -42 -30 -71 -36 -64 -40 -139 -11
-202 33 -73 62 -87 220 -105 41 -5 83 -5 96 0 35 13 65 58 65 97 0 20 9 46 20
60 41 52 17 143 -49 190 -12 8 -21 25 -21 41 0 15 -12 38 -27 54 l-28 29 24
45 c36 67 72 88 157 92 l72 4 11 -53 c31 -143 53 -319 60 -468 l7 -163 29 -24
c17 -14 55 -36 85 -51 30 -15 57 -28 59 -29 10 -8 -34 -56 -73 -79 -32 -18
-56 -25 -82 -23 -33 3 -38 7 -53 47 -20 54 -50 78 -121 92 -113 24 -158 5
-207 -86 -98 -182 -108 -355 -27 -463 31 -40 92 -72 138 -72 46 0 143 25 173
46 29 18 62 87 63 127 0 32 -24 94 -47 119 -10 11 -13 26 -9 43 6 24 10 25 79
25 95 0 156 29 232 111 30 33 55 63 55 67 0 4 75 8 168 8 92 0 187 6 212 12
33 8 48 8 59 -1 21 -18 60 -106 67 -154 6 -38 3 -45 -25 -73 -39 -39 -48 -88
-28 -143 8 -23 18 -60 22 -82 20 -120 102 -161 230 -116 84 30 173 88 246 160
105 106 126 178 75 266 -82 139 -245 135 -331 -8 -8 -13 -17 -15 -39 -9 -26 7
-32 17 -51 78 -12 38 -29 83 -38 101 l-17 31 43 25 c23 14 52 36 64 49 32 35
84 231 98 374 11 108 9 104 69 104 75 0 136 29 210 100 46 44 70 60 91 60 28
0 95 35 95 50 0 4 25 20 55 35 41 20 62 38 81 71 32 54 45 108 38 151 -9 47
-172 208 -237 232 -39 15 -91 -4 -124 -45 -15 -20 -44 -53 -64 -73 -20 -20
-41 -46 -48 -58 -16 -30 -14 -99 4 -133 9 -17 12 -40 9 -59 -4 -21 1 -45 16
-77 l23 -47 -35 -33 c-41 -37 -104 -60 -141 -51 -24 7 -24 8 -30 159 -6 149
-30 341 -61 483 -14 68 -14 71 6 92 24 26 25 53 4 163 -16 81 -45 120 -89 120
-19 0 -29 15 -61 90 -21 50 -47 95 -58 101 -26 14 -245 20 -343 9z m444 -504
c13 -15 55 -228 72 -361 19 -149 17 -487 -5 -610 -23 -134 -53 -252 -73 -282
-79 -120 -490 -163 -724 -74 -93 35 -95 38 -102 197 -6 118 -26 284 -53 436
-6 33 -5 36 14 31 35 -9 62 14 62 52 0 43 -25 70 -78 86 l-39 11 -46 160 c-25
88 -43 167 -40 174 7 18 99 45 298 88 306 66 640 119 687 108 10 -2 22 -10 27
-16z m565 -186 c8 -8 6 -14 -7 -21 -9 -6 -28 -22 -42 -37 -24 -26 -25 -26 -60
-9 -31 15 -34 20 -25 36 18 35 52 53 89 47 19 -3 39 -10 45 -16z m92 -67 c16
-16 15 -18 -13 -30 -34 -13 -83 -67 -83 -89 0 -32 -17 -10 -30 38 -13 51 -12
52 14 75 32 28 87 31 112 6z m-188 -48 c77 -64 26 -156 -52 -94 -33 26 -34 6
0 -28 25 -25 42 -27 101 -8 17 6 25 1 38 -24 22 -43 55 -57 93 -42 16 7 34 24
41 37 17 38 13 41 -14 11 -43 -45 -95 -32 -95 25 0 59 49 118 99 118 109 0 88
-206 -26 -261 -35 -17 -56 -20 -94 -16 -27 3 -49 4 -49 2 0 -3 14 -12 32 -21
30 -16 31 -17 13 -30 -10 -8 -37 -14 -59 -14 -65 0 -121 43 -141 108 -6 22 -5
23 32 16 l38 -7 -29 23 c-33 27 -65 92 -66 133 0 32 24 83 42 90 31 13 69 5
96 -18z m-1718 -503 c20 -10 36 -26 38 -38 3 -18 -1 -20 -30 -17 -32 4 -31 3
18 -26 93 -55 129 -125 89 -177 -15 -19 -15 -19 -34 4 -19 22 -20 22 -30 3 -6
-11 -11 -30 -11 -42 0 -18 3 -19 15 -9 39 33 49 -46 10 -85 -31 -32 -66 -32
-106 2 -30 25 -31 26 -25 5 6 -18 3 -22 -15 -22 -13 0 -33 10 -46 22 -20 18
-23 19 -23 5 0 -23 -12 -21 -45 5 -36 28 -55 76 -55 138 0 71 35 128 105 169
17 10 16 11 -12 6 -36 -7 -38 -4 -23 25 26 48 116 64 180 32z m120 -587 c0 -3
-17 -22 -38 -43 -89 -89 -136 -272 -102 -394 13 -44 52 -93 95 -119 28 -18 28
-19 7 -19 -55 0 -123 61 -142 128 -44 159 64 442 173 451 4 1 7 -1 7 -4z m138
-51 c12 -14 22 -29 22 -35 0 -12 -17 -12 -25 1 -13 20 -64 11 -81 -15 -33 -51
-17 -97 44 -122 34 -14 37 -20 23 -42 -7 -10 -13 -11 -30 -1 -12 6 -41 10 -64
8 l-42 -3 55 -17 c80 -25 140 -92 140 -158 0 -109 -110 -156 -213 -91 -63 41
-87 90 -87 180 0 134 62 270 141 310 52 25 84 21 117 -15z m1334 -101 l20 -21
-34 -16 c-46 -22 -93 -73 -163 -176 -32 -47 -72 -100 -88 -118 -39 -41 -108
-74 -144 -70 -24 3 -29 9 -37 45 -6 31 -5 55 7 90 9 26 14 49 13 50 -2 2 -15
-6 -29 -18 l-27 -20 0 39 c0 33 6 45 39 75 44 40 101 62 137 53 18 -5 24 -12
20 -24 -24 -82 -13 -100 17 -27 24 57 80 130 115 150 38 22 127 15 154 -12z
m53 -63 c3 -5 -9 -16 -27 -23 -47 -20 -82 -58 -152 -167 -86 -132 -159 -191
-233 -189 -25 0 -23 3 22 25 66 32 106 73 169 169 29 44 68 98 87 119 54 62
117 93 134 66z"/>
<path d="M3035 3638 c-35 -27 -55 -76 -54 -130 l1 -43 10 36 c13 51 48 80 101
86 57 7 104 -17 123 -63 8 -19 17 -34 20 -34 10 0 -5 80 -21 111 -31 59 -127
79 -180 37z"/>
<path d="M3395 3651 c-42 -18 -75 -82 -75 -145 0 -31 0 -31 19 11 21 46 62 73
111 73 49 0 90 -27 111 -73 18 -41 19 -41 19 -12 0 49 -18 100 -45 125 -27 25
-104 37 -140 21z"/>
<path d="M2977 3370 c-28 -22 -43 -68 -28 -83 8 -8 11 -7 11 2 0 7 5 9 10 6 6
-3 10 -16 10 -29 0 -77 82 -196 163 -235 23 -11 67 -23 97 -27 131 -15 219 50
256 191 19 68 17 99 -4 126 l-19 22 -55 -32 c-114 -65 -233 -60 -346 15 -44
29 -51 38 -42 50 19 22 -22 18 -53 -6z"/>
<path d="M2127 2866 c-3 -8 -3 -24 0 -37 6 -22 7 -22 14 -3 11 27 11 54 0 54
-5 0 -11 -6 -14 -14z"/>
<path d="M2217 2873 c-11 -10 -8 -63 3 -63 6 0 10 16 10 35 0 36 -2 40 -13 28z"/>
<path d="M1860 1320 l0 -211 68 1 c37 1 81 -1 98 -5 52 -11 74 19 74 101 0 75
-9 98 -48 118 -25 14 -26 15 -7 22 43 15 55 35 55 89 0 78 -17 89 -141 93
l-99 4 0 -212z m135 79 c0 -24 -5 -34 -15 -34 -16 0 -25 37 -16 62 10 26 31 8
31 -28z m5 -157 c0 -21 -3 -42 -7 -45 -13 -13 -33 16 -33 49 0 27 4 34 20 34
17 0 20 -7 20 -38z"/>
<path d="M2250 1320 l0 -210 91 0 90 0 -3 43 c-3 41 -4 42 -40 45 -37 3 -38 4
-38 42 0 40 11 50 56 50 21 0 24 5 24 35 0 34 -1 35 -40 35 l-40 0 0 40 0 40
40 0 40 0 0 45 0 45 -90 0 -90 0 0 -210z"/>
<path d="M2580 1320 l0 -210 50 0 50 0 -6 63 c-3 34 -7 75 -9 90 -3 15 -1 26
3 23 5 -3 17 -44 27 -91 l18 -85 53 0 54 0 0 210 0 210 -51 0 -51 0 5 -97 6
-98 -20 85 c-12 47 -22 91 -25 98 -2 7 -22 12 -54 12 l-50 0 0 -210z"/>
<path d="M3016 1458 c-9 -40 -28 -135 -44 -210 l-28 -138 53 0 c50 0 53 1 53
25 0 21 5 25 30 25 23 0 31 -5 36 -25 6 -22 11 -25 56 -25 l50 0 -8 33 c-4 17
-23 111 -43 207 l-37 175 -51 3 -51 3 -16 -73z m78 -209 c-3 -5 -9 -9 -15 -9
-11 0 -12 83 -1 94 8 9 24 -73 16 -85z"/>
<path d="M3350 1320 l0 -210 61 0 c43 0 58 3 53 12 -4 6 3 4 17 -5 31 -23 65
-21 89 3 18 18 20 33 20 181 0 96 -4 168 -11 181 -17 31 -71 48 -154 48 l-75
0 0 -210z m135 -5 c0 -100 -3 -120 -15 -120 -12 0 -15 22 -18 123 -2 114 -1
123 15 120 16 -3 18 -16 18 -123z"/>
<path d="M3786 1458 c-9 -40 -28 -135 -44 -210 l-28 -138 53 0 c50 0 53 1 53
25 0 21 5 25 30 25 23 0 31 -5 36 -25 6 -22 11 -25 55 -25 l49 0 -7 33 c-4 17
-23 111 -43 207 l-36 175 -51 3 -51 3 -16 -73z m78 -209 c-3 -5 -9 -9 -15 -9
-11 0 -12 83 -1 94 8 9 24 -73 16 -85z"/>
<path d="M4120 1320 l0 -210 50 0 49 0 -4 88 -4 87 21 -87 22 -88 36 0 37 0
17 80 c10 44 20 80 23 80 3 0 3 -36 1 -80 l-5 -80 49 0 48 0 0 210 0 210 -49
0 -49 0 -15 -67 c-8 -38 -23 -105 -33 -151 -10 -45 -21 -79 -25 -75 -4 5 -19
64 -34 133 -14 69 -29 133 -31 143 -4 13 -16 17 -55 17 l-49 0 0 -210z"/>
<path d="M2281 926 c-7 -9 -11 -41 -9 -83 l3 -68 45 -3 c33 -3 47 1 57 14 7
10 13 21 13 26 0 15 -28 8 -34 -8 -3 -9 -15 -14 -28 -12 -21 3 -23 8 -23 63 0
54 2 60 22 63 14 2 23 -3 28 -17 3 -12 10 -21 15 -21 16 0 21 19 10 40 -13 24
-81 28 -99 6z"/>
<path d="M2502 928 c-16 -16 -16 -130 0 -146 7 -7 28 -12 48 -12 50 0 60 14
60 85 0 34 -5 66 -12 73 -16 16 -80 16 -96 0z m73 -73 c0 -57 -1 -60 -25 -60
-23 0 -25 4 -28 49 -4 62 2 78 30 74 21 -3 23 -8 23 -63z"/>
<path d="M2720 855 c0 -69 3 -85 15 -85 10 0 15 10 15 34 0 30 4 35 25 38 33
4 33 22 0 26 -38 5 -31 46 8 50 44 5 31 22 -18 22 l-45 0 0 -85z"/>
<path d="M2910 855 c0 -67 3 -85 14 -85 9 0 16 12 18 32 2 24 9 34 26 38 13 3
23 10 23 15 0 6 -10 12 -23 15 -34 9 -31 44 5 48 44 5 31 22 -18 22 l-45 0 0
-85z"/>
<path d="M3100 855 l0 -85 52 0 c52 0 58 15 8 22 -34 4 -34 40 -1 48 35 8 37
28 4 32 -39 4 -40 42 0 46 44 5 31 22 -18 22 l-45 0 0 -85z"/>
<path d="M3300 855 l0 -85 45 0 c49 0 62 17 18 22 -39 4 -46 45 -8 50 14 2 26
8 26 13 0 6 -12 11 -26 13 -38 5 -31 46 8 50 44 5 31 22 -18 22 l-45 0 0 -85z"/>
<path d="M3645 917 c-4 -13 -5 -50 -3 -82 l3 -60 47 -3 c38 -2 49 1 57 17 15
26 -7 41 -25 17 -7 -10 -21 -16 -31 -14 -15 3 -18 13 -18 63 0 55 2 60 23 63
14 2 22 -2 22 -12 0 -20 19 -31 32 -18 7 7 6 17 -1 31 -9 17 -21 21 -56 21
-38 0 -45 -3 -50 -23z"/>
<path d="M3872 928 c-12 -12 -17 -114 -6 -142 4 -11 19 -16 50 -16 52 0 64 16
64 85 0 66 -13 85 -58 85 -21 0 -43 -5 -50 -12z m74 -31 c3 -13 4 -41 2 -63
-3 -34 -6 -39 -28 -39 -23 0 -25 4 -28 49 -4 60 2 76 27 76 13 0 23 -9 27 -23z"/>
<path d="M4086 793 c-11 -11 -6 -23 9 -23 8 0 15 4 15 9 0 13 -16 22 -24 14z"/>
</g>
</svg>
